Coordinates
version=1
nRows=5
nColumns=40
inDegrees=yes

Units are S.I. units (second, meters, Newtons, ...)
If the header above contains a line with 'inDegrees', this indicates whether rotational values are in degrees (yes) or radians (no).

endheader
time	pelvis_tilt	pelvis_list	pelvis_rotation	pelvis_tx	pelvis_ty	pelvis_tz	hip_flexion_r	hip_adduction_r	hip_rotation_r	knee_angle_r	knee_angle_r_beta	ankle_angle_r	subtalar_angle_r	mtp_angle_r	hip_flexion_l	hip_adduction_l	hip_rotation_l	knee_angle_l	knee_angle_l_beta	ankle_angle_l	subtalar_angle_l	mtp_angle_l	lumbar_extension	lumbar_bending	lumbar_rotation	arm_flex_r	arm_add_r	arm_rot_r	elbow_flex_r	pro_sup_r	wrist_flex_r	wrist_dev_r	arm_flex_l	arm_add_l	arm_rot_l	elbow_flex_l	pro_sup_l	wrist_flex_l	wrist_dev_l
      7.76700000	    -24.22747682	      4.71476634	      8.04642584	      0.07560028	      1.28743639	     -0.00467599	     60.70206762	    -12.73664645	      2.78975489	     70.82443481	      1.23611958	    -28.07463242	    -18.11485629	      0.00000000	     90.76733163	      6.39955792	      2.61433893	     83.00696579	      1.44874486	     -9.11345684	    -16.67658021	      0.00000000	    -34.10590248	     -4.00296695	     -4.32527683	     63.46224052	      8.55918962	    -52.63425876	     41.69100963	     80.01855316	      0.00000000	      0.00000000	     61.83839387	      5.88004923	    -18.06369222	     35.18893549	      5.00636437	      0.00000000	      0.00000000
      7.78300000	    -23.82623235	      4.51288013	      7.02965070	      0.07565819	      1.28793894	     -0.00346342	     63.32016732	    -11.43074768	      4.59518164	     77.48394631	      1.35234998	    -27.03203820	    -17.51529234	      0.00000000	     86.93533495	      5.33058792	      2.47194073	     76.71433859	      1.33891779	    -10.40391428	    -17.09033463	      0.00000000	    -34.18136068	     -4.13277040	     -3.35141392	     63.47237997	      8.62522906	    -52.36267815	     41.58188172	     79.79833460	      0.00000000	      0.00000000	     61.71784342	      5.78834265	    -18.41164729	     35.15958460	      5.41593491	      0.00000000	      0.00000000
      7.80000000	    -23.57118601	      4.36430220	      5.95993455	      0.07558837	      1.28827187	     -0.00215854	     66.25649007	    -10.12847051	      6.33113618	     83.73755931	      1.46149612	    -25.63927738	    -16.46258867	      0.00000000	     82.87092767	      4.19611827	      2.04498195	     70.39849848	      1.22868559	    -12.15738100	    -17.82684925	      0.00000000	    -34.15809334	     -4.29832014	     -2.39720075	     63.50273209	      8.78150201	    -52.13295347	     41.50514692	     79.64651504	      0.00000000	      0.00000000	     61.53501137	      5.65487333	    -18.74560639	     35.21736848	      5.59281365	      0.00000000	      0.00000000
      7.81700000	    -23.48065976	      4.37998172	      4.67893853	      0.07540655	      1.28831548	     -0.00037898	     69.66779876	     -8.74783108	      8.17946185	     89.63240121	      1.56438052	    -24.01623444	    -15.34503957	      0.00000000	     78.45497979	      2.88852086	      1.09565307	     63.98730250	      1.11678911	    -13.96321323	    -18.70183796	      0.00000000	    -34.05628712	     -4.69479325	     -1.38794823	     63.51125423	      8.96859860	    -51.69979694	     41.49450012	     79.64890420	      0.00000000	      0.00000000	     61.31625623	      5.48886548	    -19.08085119	     35.33540420	      5.63914715	      0.00000000	      0.00000000
      7.83300000	    -23.42425354	      4.14970367	      3.25726654	      0.07519493	      1.28823138	      0.00178343	     73.29042308	     -7.11848605	      9.61355387	     95.14852130	      1.66065498	    -22.01028200	    -14.48204497	      0.00000000	     73.71108286	      1.37988170	      0.09356047	     57.39387541	      1.00171210	    -16.33463036	    -19.07265223	      0.00000000	    -33.92562381	     -4.88300516	     -0.16518658	     63.55189127	      9.23097731	    -51.23421175	     41.47757318	     79.61034228	      0.00000000	      0.00000000	     60.98125960	      5.27157937	    -19.40325082	     35.59220109	      5.74018714	      0.00000000	      0.00000000
